<svg width="20" height="20" viewBox="0 0 20 20" fill="none" xmlns="http://www.w3.org/2000/svg">
<path fill-rule="evenodd" clip-rule="evenodd" d="M4.09672 10C4.09672 9.35046 4.2046 8.72774 4.39715 8.14364L1.02691 5.57001C0.37007 6.90364 0 8.40637 0 10C0 11.5923 0.369615 13.0941 1.02555 14.4268L4.39396 11.8482C4.20323 11.2668 4.09672 10.6464 4.09672 10Z" fill="#FBBC05"/>
<path fill-rule="evenodd" clip-rule="evenodd" d="M10.0146 4.09091C11.4257 4.09091 12.7003 4.59091 13.7017 5.40909L16.6149 2.5C14.8397 0.954545 12.5637 0 10.0146 0C6.05721 0 2.65602 2.26318 1.02734 5.57L4.39758 8.14364C5.17413 5.78636 7.38773 4.09091 10.0146 4.09091Z" fill="#EB4335"/>
<path fill-rule="evenodd" clip-rule="evenodd" d="M10.0146 15.9092C7.38773 15.9092 5.17413 14.2137 4.39758 11.8564L1.02734 14.4296C2.65602 17.7369 6.05721 20.0001 10.0146 20.0001C12.4572 20.0001 14.7891 19.1328 16.5393 17.5078L13.3403 15.0346C12.4376 15.6033 11.301 15.9092 10.0146 15.9092Z" fill="#34A853"/>
<path fill-rule="evenodd" clip-rule="evenodd" d="M19.5737 10C19.5737 9.4091 19.4826 8.77273 19.3461 8.18182H10.0146V12.0455H15.3859C15.1173 13.3627 14.3863 14.3755 13.3403 15.0346L16.5394 17.5077C18.3779 15.8014 19.5737 13.2596 19.5737 10Z" fill="#4285F4"/>
</svg>
